# xmcd CD database file
#
# Track frame offsets:
#	150
#	18532
#	33292
#	49215
#	63602
#	79295
#	93440
#	104702
#	121847
#	139860
#
# Disc length: 2060 seconds
#
# Revision: 4
# Processed by: cddbd v1.5.2PL0 Copyright (c) Steve Scherf et al.
# Submitted via: CDex 1.70beta2
#
DISCID=8b080a0a
DTITLE=Crystal Gayle - - Greatest Hits
DYEAR=1983
DGENRE=Country
TTITLE0=Crystal Gayle - Half The Way - #15, #2 Cty - 1978
TTITLE1=Crystal Gayle - If You Ever Change Your Mind - #1 Cty - 1980
TTITLE2=Crystal Gayle - It's Like We Never Said Goodbye - #1 Cty - 1980
TTITLE3=Crystal Gayle - You Never Gave Up On Me - #5 - Cty - 1982
TTITLE4=Crystal Gayle - Livin' In These Troubled Times - #9 Cty - 1982
TTITLE5=Crystal Gayle - Keepin' Power - #49 Cty - 1983
TTITLE6=Crystal Gayle - The Woman In Me - #76, #3 Cty - 1981
TTITLE7=Crystal Gayle - Too Many Lovers - #1 Cty - 1981
TTITLE8=Crystal Gayle - Take It Easy
TTITLE9=Crystal Gayle - The Blue Side
EXTD=YEAR: 1983
EXTT0=
EXTT1=
EXTT2=
EXTT3=
EXTT4=
EXTT5=
EXTT6=
EXTT7=
EXTT8=
EXTT9=
PLAYORDER=
